# xmcd CD database file
# Copyright (C) 1993-1998 Ti Kan
# 
# Track frame offsets:
#     182
#     12482
#     21855
#     33177
#     45200
#     57382
#     68990
#     78825
#     91042
#     103275
#     114752
#     124722
#     134385
#     149547
# 
# Disc length: 2180 seconds
# 
# Revision: 1
# Processed by: cddbd v1.4b41PL1 Copyright (c) Steve Scherf et al.
# Submitted via: DiscPlay 4.0.4
# 
DISCID=b208820e
DTITLE=The Shirelles - The Great Shirelles
DYEAR=1900
DGENRE=
TTITLE0=Will You Love Me Tomorrow
TTITLE1=Dedicated To The One I Love
TTITLE2=What A Sweet Thing That Was
TTITLE3=Baby It's You
TTITLE4=Soldier Boy
TTITLE5=Welcome Home Baby
TTITLE6=Stop The Music
TTITLE7=Everybody Koves A Lover
TTITLE8=Don't Say Goodnight And Mean Goodbye
TTITLE9=What Does A Girl Do?
TTITLE10=Love Is A Swingin' Thing (with King Curtis)
TTITLE11=Boys
TTITLE12=Blue Holiday
TTITLE13=Maybe Tonight
EXTD=
EXTT0=
EXTT1=
EXTT2=
EXTT3=
EXTT4=
EXTT5=
EXTT6=
EXTT7=
EXTT8=
EXTT9=
EXTT10=
EXTT11=
EXTT12=
EXTT13=
PLAYORDER=
